# xmcd
#
# Track frame offsets: 
#        150
#        20254
#        38373
#        56366
#        73431
#        89845
#        107914
#        127609
#        147865
#        162145
#        184924
#
# Disc length: 2722 seconds
#
# Revision: 4
# Processed by: cddbd v1.5.2PL0 Copyright (c) Steve Scherf et al.
# Submitted via: ExactAudioCopy v0.99pb4
#
DISCID=900aa00b
DTITLE=Alison Moyet - Hometime
DYEAR=2002
DGENRE=Pop
TTITLE0=Yesterday's Flame
TTITLE1=Should I Feel That It's Over
TTITLE2=More
TTITLE3=Hometime
TTITLE4=Mary, Don't Keep Me Waiting
TTITLE5=Say It
TTITLE6=Ski
TTITLE7=If You Don't Come Back To Me
TTITLE8=Do You Ever Wonder
TTITLE9=The Train I Ride
TTITLE10=You Don't Have To Go
EXTD=YEAR: 2002
EXTT0=
EXTT1=
EXTT2=
EXTT3=
EXTT4=
EXTT5=
EXTT6=
EXTT7=
EXTT8=
EXTT9=
EXTT10=
PLAYORDER=
